Coordinates
version=1
nRows=26
nColumns=24
inDegrees=yes

Units are S.I. units (second, meters, Newtons, ...)
Angles are in degrees.

endheader
time	pelvis_tilt	pelvis_list	pelvis_rotation	pelvis_tx	pelvis_ty	pelvis_tz	hip_flexion_r	hip_adduction_r	hip_rotation_r	knee_angle_r	ankle_angle_r	subtalar_angle_r	mtp_angle_r	hip_flexion_l	hip_adduction_l	hip_rotation_l	knee_angle_l	ankle_angle_l	subtalar_angle_l	mtp_angle_l	lumbar_extension	lumbar_bending	lumbar_rotation
      5.55000000	     -0.78283794	      6.27752197	     20.62471722	     -1.52613208	      0.63858089	      0.13157643	     26.13207504	    -14.07933865	    -12.34715775	     -6.47741958	      0.91657451	    -18.54087789	      0.00000000	    -23.18165725	     -0.65571119	     19.34653121	    -11.92237100	     19.14872047	     -1.36878797	      0.00000000	    -15.95888687	     -6.52823666	    -18.28856433
      5.56000000	     -0.95783202	      5.68538559	     20.79702870	     -1.51179249	      0.63737755	      0.13323808	     26.74973387	    -13.35338460	    -11.29477131	     -8.92838495	     -2.83270563	    -22.97417759	      0.00000000	    -23.12495596	     -1.63080996	     18.88056778	    -13.25502581	     17.59506369	     -1.06095664	      0.00000000	    -15.63590333	     -5.89607066	    -18.33719537
      5.57000000	     -0.97313369	      4.99577477	     20.82368751	     -1.49757666	      0.63664326	      0.13514155	     27.43585762	    -12.39556214	    -10.02927044	    -11.76150947	     -6.54769795	    -26.84755260	      0.00000000	    -22.94813005	     -2.65526651	     18.10148841	    -14.93257250	     15.75425574	     -0.65904959	      0.00000000	    -15.51414616	     -5.08948518	    -18.40435947
      5.58000000	     -0.77357479	      4.18770576	     20.76273605	     -1.48348674	      0.63648004	      0.13720849	     28.03686269	    -11.17076733	     -8.83397739	    -14.80743124	     -9.27283249	    -29.50790768	      0.00000000	    -22.68003063	     -3.77769226	     17.11445301	    -16.96593650	     13.48280365	     -0.33063968	      0.00000000	    -15.64166599	     -4.05712501	    -18.53885260
      5.59000000	     -0.45809837	      3.23809297	     20.65933797	     -1.46949700	      0.63682092	      0.13931654	     28.56223398	     -9.73451790	     -8.13070193	    -17.89721560	    -10.00316947	    -30.23975218	      0.00000000	    -22.17933980	     -4.97513861	     15.97800710	    -19.39938044	     10.63882250	     -0.41891169	      0.00000000	    -15.86332660	     -2.80850211	    -18.71527664
      5.60000000	     -0.04277179	      2.26558367	     20.62618698	     -1.45562075	      0.63769197	      0.14147833	     28.69269922	     -8.13496730	     -7.42170017	    -20.48196564	    -10.23885332	    -31.12724395	      0.00000000	    -21.37852370	     -6.20316334	     14.72232752	    -22.30726597	      7.20056820	     -0.66681946	      0.00000000	    -16.21682889	     -1.51002777	    -19.09835794
      5.61000000	      0.40105401	      1.26490897	     20.64015018	     -1.44183846	      0.63901168	      0.14361462	     28.45682253	     -6.42382971	     -6.93372600	    -22.45707164	     -9.91556190	    -32.05231246	      0.00000000	    -20.24253917	     -7.41822498	     13.51597429	    -25.59218619	      3.10391426	     -1.46883925	      0.00000000	    -16.55725725	     -0.18853299	    -19.56138561
      5.62000000	      0.82925505	      0.34274739	     20.68932810	     -1.42822031	      0.64075423	      0.14570655	     27.83917939	     -4.71403449	     -6.52789233	    -23.74488424	     -9.18006834	    -33.05724274	      0.00000000	    -18.80701176	     -8.46135140	     12.61577158	    -29.13767390	     -1.72896619	     -3.28354534	      0.00000000	    -16.86949906	      0.99241004	    -20.03018442
      5.63000000	      1.12252338	     -0.48372060	     20.69464775	     -1.41485703	      0.64272190	      0.14779588	     27.05418163	     -3.08605224	     -6.22705120	    -24.46837099	     -8.26826951	    -33.99551438	      0.00000000	    -16.93334075	     -9.27119315	     11.83088198	    -32.98752462	     -6.81980938	     -5.75095206	      0.00000000	    -17.02578905	      1.94081431	    -20.33754018
      5.64000000	      1.32660818	     -1.22376172	     20.58551203	     -1.40179169	      0.64486617	      0.14994427	     26.10726929	     -1.49608095	     -5.86531060	    -24.69300163	     -7.26001419	    -34.84961186	      0.00000000	    -14.72953169	     -9.84410207	     11.18296255	    -37.08033259	    -11.69401138	     -8.72915411	      0.00000000	    -17.07866154	      2.66292309	    -20.42254836
      5.65000000	      1.43879756	     -1.82811096	     20.28843595	     -1.38908203	      0.64713959	      0.15216296	     25.06880712	     -0.02408597	     -5.46657075	    -24.55368123	     -6.21664150	    -35.44224684	      0.00000000	    -12.28603195	    -10.10701237	     10.63075064	    -41.32178430	    -15.95963553	    -11.98727981	      0.00000000	    -17.07200478	      3.09814340	    -20.18951551
      5.66000000	      1.46933725	     -2.31784277	     19.75810940	     -1.37672839	      0.64947346	      0.15446533	     24.00456396	      1.32766970	     -5.04508983	    -24.19782119	     -5.04944824	    -35.61863396	      0.00000000	     -9.68477853	    -10.08916764	     10.09321600	    -45.60800515	    -19.13044772	    -15.22852560	      0.00000000	    -17.02487173	      3.28929317	    -19.64176424
      5.67000000	      1.42626924	     -2.67569058	     18.97664021	     -1.36470473	      0.65185625	      0.15683839	     22.93164036	      2.51776388	     -4.62576510	    -23.71187758	     -3.68192317	    -35.24012015	      0.00000000	     -7.01954496	     -9.78980219	      9.52363381	    -49.78403721	    -20.98204973	    -18.23654838	      0.00000000	    -16.96355690	      3.24758246	    -18.81651388
      5.68000000	      1.39287462	     -2.85828733	     17.91683418	     -1.35297144	      0.65435811	      0.15928836	     21.79872504	      3.50056885	     -4.30014989	    -23.21862968	     -1.63664639	    -33.80923132	      0.00000000	     -4.46316675	     -9.21542533	      8.85289080	    -53.68189182	    -21.42020982	    -20.76333744	      0.00000000	    -17.00889999	      2.95739171	    -17.67389449
      5.69000000	      1.16904869	     -2.92931569	     16.73475913	     -1.34149391	      0.65674784	      0.16171490	     20.78129157	      4.24841064	     -4.01158326	    -22.63234121	      0.07901574	    -32.47285106	      0.00000000	     -1.74658217	     -8.41032900	      8.21034266	    -57.25651845	    -20.61913761	    -22.60955106	      0.00000000	    -16.87238104	      2.48178691	    -16.47620774
      5.70000000	      1.09306995	     -2.78640103	     15.34379941	     -1.33015106	      0.65934950	      0.16416830	     19.51410574	      4.78759958	     -3.70525437	    -22.00217537	      2.17193079	    -30.43450860	      0.00000000	      0.66722609	     -7.41468851	      7.42346260	    -60.33275921	    -18.70519181	    -23.45417590	      0.00000000	    -16.97129165	      1.79718960	    -15.10780807
      5.71000000	      1.00227351	     -2.49278589	     13.84879719	     -1.31893527	      0.66192191	      0.16658892	     18.18784699	      5.11530116	     -3.32061848	    -21.31497571	      4.00530100	    -28.51713065	      0.00000000	      3.01585277	     -6.26904688	      6.57465406	    -62.90875726	    -16.33384145	    -23.70874486	      0.00000000	    -17.06685040	      0.94163731	    -13.69588298
      5.72000000	      0.91380328	     -2.10214688	     12.26342895	     -1.30779664	      0.66440058	      0.16899208	     16.82823196	      5.29476349	     -2.83981714	    -20.61669260	      5.75615732	    -26.58680590	      0.00000000	      5.30789676	     -5.08397546	      5.62577671	    -64.98044271	    -13.71101765	    -23.34378728	      0.00000000	    -17.14263392	     -0.02279745	    -12.21975931
      5.73000000	      0.82239643	     -1.66144975	     10.59209087	     -1.29665831	      0.66670912	      0.17140908	     15.45336170	      5.38691207	     -2.20901617	    -19.89939353	      7.36173235	    -24.79099595	      0.00000000	      7.55500574	     -3.95838466	      4.53794473	    -66.54079666	    -11.05000410	    -22.53084396	      0.00000000	    -17.14850307	     -1.05275491	    -10.68909713
      5.74000000	      0.74429607	     -1.22672096	      8.85882258	     -1.28553630	      0.66878465	      0.17384530	     14.07773868	      5.45836226	     -1.37630865	    -19.19300555	      8.77235604	    -23.22725089	      0.00000000	      9.75710686	     -2.97655271	      3.34411961	    -67.61523477	     -8.46893613	    -21.46356688	      0.00000000	    -17.10232252	     -2.07647741	     -9.08449198
      5.75000000	      0.68656492	     -0.83823657	      7.08235477	     -1.27442292	      0.67059592	      0.17629640	     12.69741211	      5.54815696	     -0.34999861	    -18.48946903	      9.98521080	    -21.93735337	      0.00000000	     11.90040767	     -2.20252670	      2.06301874	    -68.21130274	     -6.04241306	    -20.36295013	      0.00000000	    -17.00425273	     -3.03490236	     -7.40120023
      5.76000000	      0.64347224	     -0.49771200	      5.29431734	     -1.26332485	      0.67214152	      0.17873768	     11.30289986	      5.65051707	      0.87428439	    -17.76477184	     10.98025002	    -20.91833339	      0.00000000	     13.96867628	     -1.64156133	      0.72414053	    -68.31946224	     -3.82538479	    -19.42410882	      0.00000000	    -16.86280459	     -3.92014891	     -5.75383268
      5.77000000	      0.62963568	     -0.23010053	      3.52687109	     -1.25229590	      0.67341299	      0.18111824	      9.89668304	      5.76853276	      2.18923275	    -17.04647600	     11.84065074	    -20.06368078	      0.00000000	     15.93837016	     -1.30687272	     -0.62149342	    -67.96059080	     -1.86891272	    -18.86858700	      0.00000000	    -16.72572834	     -4.68447452	     -4.13581861
      5.78000000	      0.64608000	     -0.03622417	      1.81607408	     -1.24138795	      0.67443140	      0.18337628	      8.48358249	      5.89258971	      3.55819146	    -16.34511280	     12.54371010	    -19.46139632	      0.00000000	     17.78242367	     -1.14830901	     -1.89679795	    -67.10712228	     -0.42355975	    -19.14513791	      0.00000000	    -16.63817235	     -5.32616819	     -2.47435988
      5.79000000	      0.67476548	      0.09800585	      0.18947025	     -1.23059440	      0.67516279	      0.18546645	      7.12427742	      5.98511637	      4.78629280	    -15.74493619	     13.21032359	    -18.91366259	      0.00000000	     19.50878282	     -1.16738552	     -3.14236588	    -65.80612745	      0.96977907	    -19.89144157	      0.00000000	    -16.59115123	     -5.83416962	     -0.99732767
      5.80000000	      0.73526562	      0.26530297	     -1.32699074	     -1.21992439	      0.67570298	      0.18739787	      5.77997644	      5.95954647	      5.93214540	    -15.22985589	     14.11068049	    -18.02535375	      0.00000000	     21.05985448	     -1.19813421	     -4.27369055	    -63.99296473	      1.84485093	    -21.35089068	      0.00000000	    -16.63915220	     -6.36254090	      0.35785589
